/* XPM */
static char *pngegg1736433433[] = {
/* columns rows colors chars-per-pixel */
"64 64 4 1 ",
"  c #FF0066",
". c #0055D4",
"X c white",
"o c None",
/* pixels */
"oooooooooooooooooooooooooooooooooooooooooooooooooooooooooooooooo",
"oooooooooooooooooooooooooooooooooooooooooooooooooooooooooooooooo",
"oooooooooooooooooooooooooooooooooooooooooooooooooooooooooooooooo",
"oooooooooooooooooooooooooooooooooooooooooooooooooooooooooooooooo",
"ooooooooooooooooooooooooo                ooooooooooooooooooooooo",
"ooooooooooooooooooooooooo                ooooooooooooooooooooooo",
"ooooooooooooooooooooooooo                ooooooooooooooooooooooo",
"ooooooooooooooooooooooooo                ooooooooooooooooooooooo",
"ooooooooooooooooo                              ooooooooooooooooo",
"ooooooooooooooooo                              ooooooooooooooooo",
"ooooooooooooooooo                              ooooooooooooooooo",
"ooooooooooooooooo                              ooooooooooooooooo",
"ooooooooooooo                                      ooooooooooooo",
"ooooooooooooo                                      ooooooooooooo",
"ooooooooooooo                                      ooooooooooooo",
"ooooooooooooo                                      ooooooooooooo",
"ooooooooo            XXXXXXXX              XXXXXXXX    ooooooooo",
"ooooooooo            XXXXXXXX              XXXXXXXX    ooooooooo",
"ooooooooo            XXXXXXXX              XXXXXXXX    ooooooooo",
"ooooooooo            XXXXXXXX              XXXXXXXX    ooooooooo",
"ooooooooo        XXXXXXXXXXXXXXXX      XXXXXXXXXXXXXXXXooooooooo",
"ooooooooo        XXXXXXXXXXXXXXXX      XXXXXXXXXXXXXXXXooooooooo",
"ooooooooo        XXXXXXXXXXXXXXXX      XXXXXXXXXXXXXXXXooooooooo",
"ooooooooo        XXXXXXXXXXXXXXXX      XXXXXXXXXXXXXXXXooooooooo",
"ooooooooo        XXXXXXXX........      XXXXXXXX........ooooooooo",
"ooooooooo        XXXXXXXX........      XXXXXXXX........ooooooooo",
"ooooooooo        XXXXXXXX........      XXXXXXXX........ooooooooo",
"ooooooooo        XXXXXXXX........      XXXXXXXX........ooooooooo",
"ooooo            XXXXXXXX........      XXXXXXXX........    ooooo",
"ooooo            XXXXXXXX........      XXXXXXXX........    ooooo",
"ooooo            XXXXXXXX........      XXXXXXXX........    ooooo",
"ooooo            XXXXXXXX........      XXXXXXXX........    ooooo",
"ooooo                XXXXXXXX              XXXXXXXX        ooooo",
"ooooo                XXXXXXXX              XXXXXXXX        ooooo",
"ooooo                XXXXXXXX              XXXXXXXX        ooooo",
"ooooo                XXXXXXXX              XXXXXXXX        ooooo",
"ooooo                                                      ooooo",
"ooooo                                                      ooooo",
"ooooo                                                      ooooo",
"ooooo                                                      ooooo",
"ooooo                                                      ooooo",
"ooooo                                                      ooooo",
"ooooo                                                      ooooo",
"ooooo                                                      ooooo",
"ooooo                                                      ooooo",
"ooooo                                                      ooooo",
"ooooo                                                      ooooo",
"ooooo                                                      ooooo",
"ooooo                                                      ooooo",
"ooooo                                                      ooooo",
"ooooo        oooo            oooooooo          oooo        ooooo",
"ooooo        oooo            oooooooo          oooo        ooooo",
"ooooo        oooo            oooooooo          oooo        ooooo",
"ooooo        oooo            oooooooo          oooo        ooooo",
"ooooo    oooooooooooo        oooooooo      oooooooooooo    ooooo",
"ooooo    oooooooooooo        oooooooo      oooooooooooo    ooooo",
"ooooo    oooooooooooo        oooooooo      oooooooooooo    ooooo",
"ooooo    oooooooooooo        oooooooo      oooooooooooo    ooooo",
"oooooooooooooooooooooooooooooooooooooooooooooooooooooooooooooooo",
"oooooooooooooooooooooooooooooooooooooooooooooooooooooooooooooooo",
"oooooooooooooooooooooooooooooooooooooooooooooooooooooooooooooooo",
"oooooooooooooooooooooooooooooooooooooooooooooooooooooooooooooooo",
"oooooooooooooooooooooooooooooooooooooooooooooooooooooooooooooooo",
"oooooooooooooooooooooooooooooooooooooooooooooooooooooooooooooooo"
};
