/* XPM */
static char *sprite__4_1736441364[] = {
/* columns rows colors chars-per-pixel */
"35 59 25 1 ",
"  c black",
". c #010101",
"X c #020202",
"o c gray1",
"O c #040404",
"+ c gray2",
"@ c #070707",
"# c gray3",
"$ c gray4",
"% c #0C0C0C",
"& c #101010",
"* c gray7",
"= c #232323",
"- c gray15",
"; c #2A2A2A",
": c gray17",
"> c #2C2C2C",
", c #2D2D2D",
"< c gray18",
"1 c #2F2F2F",
"2 c gray19",
"3 c #313131",
"4 c #323232",
"5 c gray20",
"6 c None",
/* pixels */
"X$XXXXXXXXXXXXXXXXXXXXXXXXXXXXXXXX6",
"555;;;;;;;;;;;=====;;,,;,,555555,XX",
"555555555555555555555555555555555@X",
"555555555555555555555555555555555@X",
"555555555555555555555555555555555XX",
"555555555555555555555555555555555XX",
"555555555555555555555555555555555@X",
"555555555555555555555555555555555@X",
"555555555555555555555555555555555XX",
"555555555555555555555555555555555XX",
"555555555555555555555555555555555XX",
"555555555555555555555555555555555XX",
"555555555555555555555555555555555XX",
"55555555555555555555555555555555,XX",
"55555555555555555555555555555555,XX",
"55555555555555555555555555555555,XX",
"55555555555555555555555555555555,XX",
"55555555555555555555555555555555,XX",
"55555555555555555555555555555555,XX",
"55555555555555555555555555555555,XX",
"55555555555555555555555555555555,XX",
"55555555555555555555555555555555,XX",
"55555555555555555555555555555555,X6",
"55555555555555555555555555555555,X6",
"55555555555555555555555555555555;X6",
"55555555555555555555555555555555;X6",
"55555555555555555555555555555555,X6",
"55555555555555555555555555555555,XX",
"55555555555555555555555555555555,X6",
"55555555555555555555555555555555,X6",
"55555555555555555555555555555555,X6",
"55555555555555555555555555555555,X6",
"555555555555555555555555555555555XX",
"555555555555555555555555555555555XX",
"555555555555555555555555555555555XX",
"555555555555555555555555555555555XX",
"55555555555555555555555555555555,XX",
"55555555555555555555555555555555,XX",
"555555555555555555555555555555555XX",
"555555555555555555555555555555555XX",
"555555555555555555555555555555555XX",
"555555555555555555555555555555555XX",
"555555555555555555555555555555555XX",
"555555555555555555555555555555555XX",
"555555555555555555555555555555555XX",
"555555555555555555555555555555555XX",
"555555555555555555555555555555555@X",
"555555555555555555555555555555555@X",
"555555555555555555555555555555555XX",
"555555555555555555555555555555555XX",
"555555555555555555555555555555555@X",
"555555555555555555555555555555555@X",
"555555555555555555555555555555555&X",
"555555555555555555555555555555555%X",
"555555555555555555555555555555555%X",
"555555555555555555555555555555555@X",
"555555555555555555555555555,,,,,=XX",
"&55;@@XXXX&$@XXXXXXXXXXXXXXXXXXXXXX",
"XX@XXXXXXXXXXXXXXXXXXXXXXXXXXXXXXX6"
};
